<?xml version="1.0" standalone="no"?> <!DOCTYPE svg PUBLIC "-//W3C//DTD SVG 1.0//EN" "http://www.w3.org/TR/2001/REC-SVG-20010904/DTD/svg10.dtd" > <svg xmlns="http://www.w3.org/2000/svg" width="100%" height="100%">
<defs >
<font id="seropromedium" horiz-adv-x="1238" ><font-face
    font-family="SeroPro-Medium"
    units-per-em="2048"
    panose-1="2 11 6 4 2 1 1 2 1 2"
    ascent="1987"
    descent="-633"
    alphabetic="0" />
<missing-glyph horiz-adv-x="1024" d="M0 0V1475H1024V0H0ZM193 1282V193H831V1282H193Z" />
<glyph unicode=" " glyph-name="space" horiz-adv-x="450" />
<glyph unicode="!" glyph-name="exclam" horiz-adv-x="671" d="M403 -25T336 -25T227 17T184 121T226 224T336 266T445 225T487 121T445 17ZM238 438L190 1475H483L436 438H238Z" />
<glyph unicode="&quot;" glyph-name="quotedbl" horiz-adv-x="876" d="M537 911L520 1475H731L715 911H537ZM162 911L145 1475H356L340 911H162Z" />
<glyph unicode="#" glyph-name="numbersign" horiz-adv-x="1171" d="M563 0L649 406H397L311 0H104L190 406H27V588H229L274 805H98V987H313L401 1393H608L520 987H772L860 1393H1067L979 987H1145V805H940L895 588H1073V406H856L770 0H563ZM481 805L436 588H688L733
805H481Z" />
<glyph unicode="$" glyph-name="dollar" horiz-adv-x="1150" d="M500 -205V0Q265 13 84 121L147 338Q365 213 541 213Q666 213 739 269T813 420Q813 484 775 529T675 600T539 648T391 699T256 768T156 879T117 1049Q117 1217 220 1328T500 1466V1638H662V1473Q852
1460 1018 1356L954 1130Q773 1253 610 1253Q500 1253 436 1203T371 1071Q371 1012 409 971T509 906T645 862T793 812T928 742T1028 627T1067 451Q1067 274 960 157T662 8V-205H500Z" />
<glyph unicode="%" glyph-name="percent" horiz-adv-x="1619" d="M752 1147Q752 997 664 900T426 803Q279 803 192 898T104 1143T192 1389T430 1487Q577 1487 664 1391T752 1147ZM563 1143Q563 1339 428 1339T293 1143Q293 1049 326 998T428 946T529 997T563 1143ZM244
0L1159 1475H1376L461 0H244ZM1516 332Q1516 182 1428 85T1190 -12Q1043 -12 956 83T868 328T956 574T1194 672Q1341 672 1428 576T1516 332ZM1327 328Q1327 524 1192 524T1057 328Q1057 234 1090 183T1192 131T1293 182T1327 328Z" />
<glyph unicode="&amp;" glyph-name="ampersand" horiz-adv-x="1263" d="M209 1057Q209 1219 323 1318T633 1417Q821 1417 927 1328T1034 1100Q1034 1045 1014 996T965 911T886 839T794 778T686 721L938 455Q991 532 1053 647L1223 551Q1135 394 1071 313L1235
141L1071 -25L915 145Q815 61 713 18T483 -25Q284 -25 168 74T51 346Q51 417 71 475T135 582T230 669T360 750Q284 830 247 896T209 1057ZM522 166Q664 166 788 283L485 612Q396 558 350 502T303 367Q303 278 361 222T522 166ZM444 1061Q444 1024 462 986T499 926T565
850Q622 879 647 892T712 930T769 974T799 1020T813 1079Q813 1142 766 1185T635 1229Q546 1229 495 1181T444 1061Z" />
<glyph unicode="&apos;" glyph-name="quotesingle" horiz-adv-x="499" d="M162 911L145 1475H356L340 911H162Z" />
<glyph unicode="(" glyph-name="parenleft" horiz-adv-x="755" d="M334 565Q334 422 363 295T447 68T560 -109T696 -256L567 -383Q493 -321 436 -265T308 -118T191 68T112 292T80 565T112 837T190 1062T307 1247T435 1394T567 1513L696 1386Q620 1315 561 1240T447
1064T364 836T334 565Z" />
<glyph unicode=")" glyph-name="parenright" horiz-adv-x="755" d="M422 565Q422 709 393 836T309 1063T195 1239T59 1386L188 1513Q249 1462 297 1416T405 1301T510 1159T594 994T655 795T676 565Q676 423 644 293T566 68T448 -117T320 -264T188 -383L59 -256Q135
-185 195 -109T309 67T392 295T422 565Z" />
<glyph unicode="*" glyph-name="asterisk" horiz-adv-x="880" d="M440 997L319 756L190 831L340 1055L70 1038V1190L340 1176L190 1397L319 1475L440 1233L561 1475L690 1397L541 1176L811 1190V1038L541 1055L690 831L561 756L440 997Z" />
<glyph unicode="+" glyph-name="plus" horiz-adv-x="1171" d="M688 0H483V420H86V625H483V1044H688V625H1085V420H688V0Z" />
<glyph unicode="," glyph-name="comma" horiz-adv-x="598" d="M184 -356L68 -248Q242 -143 279 -6Q216 -3 176 37T135 139Q135 202 177 244T289 287Q371 287 421 225T471 61Q471 -182 184 -356Z" />
<glyph unicode="-" glyph-name="hyphen" horiz-adv-x="831" d="M113 547V729H719V547H113Z" />
<glyph unicode="." glyph-name="period" horiz-adv-x="598" d="M457 198T457 131T413 20T299 -25T185 19T141 131T185 242T299 287T413 243Z" />
<glyph unicode="/" glyph-name="slash" horiz-adv-x="1255" d="M49 -82L946 1475H1206L309 -82H49Z" />
<glyph unicode="0" glyph-name="zero" horiz-adv-x="1302" d="M350 733Q350 454 431 320T651 186T870 320T952 733Q952 1011 871 1145T651 1280T432 1146T350 733ZM1206 741Q1206 557 1164 411T1047 170T870 25T647 -25Q527 -25 427 24T253 167T138 406T96 733Q96
917 138 1063T255 1304T432 1449T655 1499Q775 1499 875 1450T1050 1308T1165 1069T1206 741Z" />
<glyph unicode="1" glyph-name="one" horiz-adv-x="784" d="M133 1090L57 1294L399 1475H596V0H346V1202L133 1090Z" />
<glyph unicode="2" glyph-name="two" horiz-adv-x="1159" d="M768 1051Q768 1152 706 1213T535 1274Q340 1274 164 1065L84 1282Q172 1382 295 1441T565 1501Q772 1501 897 1383T1022 1069Q1022 881 888 685T446 213H1063V0H84V190Q461 515 614 711T768 1051Z" />
<glyph unicode="3" glyph-name="three" horiz-adv-x="1130" d="M774 414Q774 641 406 641Q376 641 262 637V840Q515 840 631 902T748 1087Q748 1181 687 1230T514 1280Q352 1280 160 1155L96 1370Q311 1501 545 1501Q751 1501 877 1405T1004 1130Q1004 869 709
766Q874 728 957 635T1040 399Q1040 200 887 88T483 -25Q240 -25 43 78L109 295Q210 243 297 215T481 186Q619 186 696 244T774 414Z" />
<glyph unicode="4" glyph-name="four" horiz-adv-x="1257" d="M55 297V500L711 1475H1004V512H1221V297H1004V0H754V297H55ZM307 512H754V1174L307 512Z" />
<glyph unicode="5" glyph-name="five" horiz-adv-x="1114" d="M795 459Q795 729 440 729Q280 729 106 678L133 1475H983V1253H371L358 920Q450 934 532 934Q763 934 906 810T1049 463Q1049 231 895 103T485 -25Q248 -25 51 78L117 299Q217 246 302 218T485 190Q633
190 714 259T795 459Z" />
<glyph unicode="6" glyph-name="six" horiz-adv-x="1216" d="M715 1499Q918 1499 1069 1409L1001 1186Q919 1231 852 1254T709 1278Q552 1278 459 1167T348 821Q502 975 702 975Q900 975 1021 843T1143 492Q1143 371 1104 272T996 109T838 10T647 -25Q527 -25
427 24T253 166T138 402T96 725Q96 915 142 1063T271 1306T466 1450T715 1499ZM641 764Q569 764 499 732T348 629Q365 401 444 292T651 182Q763 182 831 258T899 471T829 686T641 764Z" />
<glyph unicode="7" glyph-name="seven" horiz-adv-x="1060" d="M471 0H190Q454 701 723 1247H57V1475H1014V1262Q736 716 471 0Z" />
<glyph unicode="8" glyph-name="eight" horiz-adv-x="1202" d="M1141 401Q1141 206 988 91T590 -25Q349 -25 205 86T61 383Q61 444 79 496T125 587T196 658T280 714T373 758Q317 785 275 815T198 886T145 980T127 1098Q127 1277 263 1388T614 1499Q822 1499 948
1395T1075 1120Q1075 1000 1010 924T817 788Q871 765 911 745T997 690T1072 617T1121 523T1141 401ZM375 1110Q375 1028 432 978T614 877Q725 929 776 980T827 1110Q827 1198 766 1251T602 1305Q499 1305 437 1252T375 1110ZM885 387Q885 440 864 482T794 558T700
615T575 670Q442 606 380 547T317 393Q317 287 394 226T600 164Q726 164 805 225T885 387Z" />
<glyph unicode="9" glyph-name="nine" horiz-adv-x="1216" d="M502 -25Q298 -25 147 66L215 281Q296 236 363 212T508 188Q665 188 758 301T868 653Q715 500 514 500Q317 500 196 632T74 983Q74 1144 142 1263T322 1440T569 1499Q689 1499 789 1450T963 1309T1078
1073T1120 750Q1120 560 1074 411T945 168T750 24T502 -25ZM575 702Q713 702 866 836Q850 1063 772 1173T565 1284Q454 1284 386 1209T317 997Q317 859 387 781T575 702Z" />
<glyph unicode=":" glyph-name="colon" horiz-adv-x="598" d="M457 925T457 858T413 747T299 702T185 746T141 858T185 969T299 1014T413 970ZM457 198T457 131T413 20T299 -25T185 19T141 131T185 242T299 287T413 243Z" />
<glyph unicode=";" glyph-name="semicolon" horiz-adv-x="598" d="M184 -356L68 -248Q242 -143 279 -6Q216 -3 176 37T135 139Q135 202 177 244T289 287Q371 287 421 225T471 61Q471 -182 184 -356ZM451 925T451 858T407 747T293 702T179 746T135 858T179 969T293
1014T407 970Z" />
<glyph unicode="&lt;" glyph-name="less" horiz-adv-x="1171" d="M86 430V614L1085 1044V844L309 522L1085 201V0L86 430Z" />
<glyph unicode="=" glyph-name="equal" horiz-adv-x="1171" d="M1085 823V639H86V823H1085ZM1085 406V221H86V406H1085Z" />
<glyph unicode="&gt;" glyph-name="greater" horiz-adv-x="1171" d="M1085 614V430L86 0V201L862 522L86 844V1044L1085 614Z" />
<glyph unicode="?" glyph-name="question" horiz-adv-x="878" d="M530 1094Q530 1191 459 1242T270 1294Q192 1294 82 1268V1466Q200 1499 324 1499Q533 1499 658 1404T784 1128Q784 1057 763 996T707 892T631 810T548 737T473 667T417 588T395 494Q395 461 401
438H203Q190 499 190 543Q190 599 209 647T257 732T323 801T396 865T462 929T511 1004T530 1094ZM374 -25T307 -25T198 17T156 121T198 224T307 266T416 225T459 121T417 17Z" />
<glyph unicode="@" glyph-name="at" horiz-adv-x="1712" d="M860 -195Q701 -195 564 -148T323 -11T161 217T102 528Q102 757 202 939T484 1225T899 1329Q1108 1329 1269 1245T1520 1004T1610 645Q1610 528 1580 435T1496 284T1376 196T1233 166Q1136 166 1075
212T995 334Q925 251 861 209T713 166Q603 166 537 242T471 473Q471 547 487 617T538 751T624 864T751 940T920 969Q1059 969 1186 909L1143 506Q1141 489 1141 471Q1141 313 1243 313Q1330 313 1387 404T1444 645Q1444 888 1290 1031T895 1174Q713 1174 569 1090T347
858T268 528Q268 391 315 282T443 103T630 -2T858 -39Q1028 -39 1247 41L1294 -113Q1079 -195 860 -195ZM750 322Q855 322 971 485L1004 797Q947 819 893 819Q837 819 793 796T722 737T678 655T654 566T647 481Q647 322 750 322Z" />
<glyph unicode="A" glyph-name="A" horiz-adv-x="1404" d="M860 1475L1354 0H1083L975 344H420L311 0H51L555 1475H860ZM700 1221L485 547H911L700 1221Z" />
<glyph unicode="B" glyph-name="B" horiz-adv-x="1351" d="M174 0V1475H678Q920 1475 1052 1377T1184 1085Q1184 840 965 756Q1245 676 1245 399Q1245 210 1110 105T709 0H174ZM428 203H709Q853 203 922 256T991 426Q991 542 922 594T709 647H428V203ZM428 842H662Q798
842 864 893T930 1053Q930 1163 864 1214T662 1266H428V842Z" />
<glyph unicode="C" glyph-name="C" horiz-adv-x="1236" d="M1096 315L1161 104Q967 -25 731 -25Q443 -25 270 169T96 721Q96 907 145 1055T284 1300T496 1448T766 1499Q989 1499 1155 1384L1090 1153Q1000 1214 925 1245T760 1276Q576 1276 465 1139T354 731Q354
461 465 327T764 193Q930 193 1096 315Z" />
<glyph unicode="D" glyph-name="D" horiz-adv-x="1452" d="M172 1475H662Q817 1475 943 1428T1162 1289T1304 1057T1354 739Q1354 559 1303 418T1159 186T940 48T662 0H172V1475ZM432 217H662Q859 217 977 345T1096 733Q1096 866 1064 966T972 1128T835 1219T662
1249H432V217Z" />
<glyph unicode="E" glyph-name="E" horiz-adv-x="1206" d="M174 0V1475H1112V1249H432V860H1026V647H432V217H1118V0H174Z" />
<glyph unicode="F" glyph-name="F" horiz-adv-x="1118" d="M174 0V1475H1063V1249H432V840H989V627H432V0H174Z" />
<glyph unicode="G" glyph-name="G" horiz-adv-x="1398" d="M801 184Q906 184 1008 221V586H729V786H1251V104Q1027 -25 770 -25Q454 -25 274 166T94 719Q94 1093 285 1296T797 1499Q1051 1499 1251 1360L1186 1128Q1090 1200 997 1237T795 1274Q696 1274 617 1242T477
1145T385 972T352 723Q352 447 471 316T801 184Z" />
<glyph unicode="H" glyph-name="H" horiz-adv-x="1464" d="M174 0V1475H432V870H1032V1475H1290V0H1032V647H432V0H174Z" />
<glyph unicode="I" glyph-name="I" horiz-adv-x="634" d="M188 0V1475H446V0H188Z" />
<glyph unicode="J" glyph-name="J" horiz-adv-x="837" d="M47 0V223Q132 205 213 205Q336 205 382 263T428 451V1475H686V451Q686 210 584 99T244 -12Q157 -12 47 0Z" />
<glyph unicode="K" glyph-name="K" horiz-adv-x="1363" d="M174 0V1475H432V805L983 1475H1288L805 926L1331 0H1044L635 733L432 504V0H174Z" />
<glyph unicode="L" glyph-name="L" horiz-adv-x="1097" d="M174 0V1475H432V225H1049V0H174Z" />
<glyph unicode="M" glyph-name="M" horiz-adv-x="1927" d="M1520 0L1473 795Q1458 1035 1458 1151H1454Q1442 1079 1354 815L1075 0H842L565 817Q480 1067 463 1151H459Q459 998 446 788L397 0H147L270 1475H604L868 643Q939 419 961 305H965Q992 426 1063 647L1335
1475H1663L1780 0H1520Z" />
<glyph unicode="N" glyph-name="N" horiz-adv-x="1478" d="M174 0V1475H451L1065 494V1475H1305V0H1090L414 1079V0H174Z" />
<glyph unicode="O" glyph-name="O" horiz-adv-x="1474" d="M1378 741Q1378 558 1330 412T1196 170T992 25T733 -25Q593 -25 477 24T275 168T143 406T96 733Q96 917 144 1063T278 1304T482 1449T741 1499Q881 1499 997 1450T1198 1307T1331 1068T1378 741ZM1120
733Q1120 1007 1016 1141T737 1276T458 1142T354 733Q354 458 458 324T737 190T1016 324T1120 733Z" />
<glyph unicode="P" glyph-name="P" horiz-adv-x="1298" d="M174 0V1475H705Q955 1475 1093 1359T1231 1020Q1231 794 1089 679T686 563H430V0H174ZM430 1253V776H686Q833 776 904 834T975 1016Q975 1138 904 1195T686 1253H430Z" />
<glyph unicode="Q" glyph-name="Q" horiz-adv-x="1482" d="M952 -393Q777 -393 691 -318T604 -72Q604 -29 606 -6Q372 33 234 224T96 733Q96 917 144 1063T279 1304T483 1449T741 1499Q880 1499 996 1450T1198 1307T1330 1068T1378 741Q1378 406 1225 211T817
-14V-16Q817 -109 861 -145T1001 -182Q1087 -182 1190 -152V-369Q1067 -393 952 -393ZM1120 733Q1120 1008 1017 1142T737 1276Q562 1276 458 1142T354 733Q354 461 458 327T737 193Q914 193 1017 326T1120 733Z" />
<glyph unicode="R" glyph-name="R" horiz-adv-x="1413" d="M1020 0L676 618H428V0H174V1475H741Q983 1475 1114 1367T1245 1049Q1245 730 940 643L1307 0H1020ZM428 811H715Q858 811 924 863T991 1032T925 1201T715 1253H428V811Z" />
<glyph unicode="S" glyph-name="S" horiz-adv-x="1191" d="M96 100L162 322Q379 190 561 190Q689 190 763 248T838 403Q838 456 814 496T750 563T657 610T546 649T430 689T319 741T226 812T161 916T137 1059Q137 1260 275 1379T639 1499Q869 1499 1055 1376L989
1147Q804 1276 637 1276Q526 1276 461 1224T395 1085Q395 1035 419 998T483 936T576 893T687 856T804 817T914 765T1007 691T1072 584T1096 436Q1096 224 950 100T561 -25Q307 -25 96 100Z" />
<glyph unicode="T" glyph-name="T" horiz-adv-x="1175" d="M459 0V1249H49V1475H1126V1249H717V0H459Z" />
<glyph unicode="U" glyph-name="U" horiz-adv-x="1409" d="M152 526V1475H412V537Q412 355 483 277T709 199Q863 199 934 277T1006 537V1475H1257V537Q1257 244 1119 110T700 -25Q422 -25 287 107T152 526Z" />
<glyph unicode="V" glyph-name="V" horiz-adv-x="1347" d="M537 0L51 1475H313L678 336L1044 1475H1296L803 0H537Z" />
<glyph unicode="W" glyph-name="W" horiz-adv-x="1959" d="M1270 0L1077 725Q1025 921 1012 977T983 1135H975Q955 1000 879 721L682 0H430L59 1475H328L498 768Q553 532 582 365H586Q636 621 676 772L864 1475H1108L1292 772Q1332 621 1382 365H1386Q1417 553
1468 768L1640 1475H1901L1522 0H1270Z" />
<glyph unicode="X" glyph-name="X" horiz-adv-x="1357" d="M66 0L518 760L90 1475H375L682 942L989 1475H1266L836 760L1288 0H1001L672 578L344 0H66Z" />
<glyph unicode="Y" glyph-name="Y" horiz-adv-x="1292" d="M516 0V608L33 1475H307L649 858L993 1475H1257L774 608V0H516Z" />
<glyph unicode="Z" glyph-name="Z" horiz-adv-x="1245" d="M70 0V184L811 1249H111V1475H1149V1282L408 217H1155V0H70Z" />
<glyph unicode="[" glyph-name="bracketleft" horiz-adv-x="804" d="M741 -180V-369H154V1475H741V1286H408V-180H741Z" />
<glyph unicode="\" glyph-name="backslash" horiz-adv-x="1255" d="M309 1475L1206 -82H946L49 1475H309Z" />
<glyph unicode="]" glyph-name="bracketright" horiz-adv-x="804" d="M61 -369V-180H395V1286H61V1475H649V-369H61Z" />
<glyph unicode="^" glyph-name="asciicircum" horiz-adv-x="1171" d="M494 1475H678L1108 475H907L586 1251L264 475H63L494 1475Z" />
<glyph unicode="_" glyph-name="underscore" horiz-adv-x="1007" d="M-8 -299V-117H1016V-299H-8Z" />
<glyph unicode="`" glyph-name="grave" horiz-adv-x="1024" d="M678 1149H481L201 1475H485L678 1149Z" />
<glyph unicode="a" glyph-name="a" horiz-adv-x="1079" d="M516 866Q379 866 190 774L137 967Q346 1069 569 1069Q759 1069 857 984T956 698V238Q956 52 977 0H737Q718 30 711 119Q570 -25 391 -25Q252 -25 166 60T80 299Q80 649 553 649Q628 649 709 637V678Q709
778 662 822T516 866ZM477 168Q596 168 709 272V481Q621 494 575 494Q443 494 386 452T328 324Q328 246 367 207T477 168Z" />
<glyph unicode="b" glyph-name="b" horiz-adv-x="1187" d="M141 1475H395V907Q531 1069 715 1069Q893 1069 1000 929T1108 537Q1108 271 991 123T692 -25Q514 -25 385 137V0H141V1475ZM631 852Q513 852 395 731V291Q502 178 623 178Q730 178 792 262T854 516T794
768T631 852Z" />
<glyph unicode="c" glyph-name="c" horiz-adv-x="933" d="M868 989L815 784Q698 866 596 866Q477 866 406 779T334 518Q334 345 406 259T602 172Q721 172 821 250L874 61Q741 -25 561 -25Q342 -25 211 112T80 510Q80 777 219 923T588 1069Q751 1069 868 989Z" />
<glyph unicode="d" glyph-name="d" horiz-adv-x="1187" d="M1067 0H821Q802 30 795 137Q655 -25 473 -25Q295 -25 188 114T80 504Q80 770 198 919T498 1069Q667 1069 793 922V1475H1047V238Q1047 40 1067 0ZM557 178Q675 178 793 299V739Q686 852 565 852Q458
852 396 768T334 514Q334 346 394 262T557 178Z" />
<glyph unicode="e" glyph-name="e" horiz-adv-x="1112" d="M575 885Q476 885 412 815T336 614H784Q783 751 727 818T575 885ZM1016 451H340Q362 166 625 166Q759 166 940 254L993 72Q910 27 803 1T592 -25Q354 -25 217 112T80 508Q80 642 118 749T225 926T384
1032T584 1069Q788 1069 905 940T1022 561Q1022 505 1016 451Z" />
<glyph unicode="f" glyph-name="f" horiz-adv-x="710" d="M41 848V1044H217V1153Q217 1321 295 1404T549 1487Q604 1487 672 1477V1282Q633 1292 596 1292Q525 1292 498 1260T471 1153V1044H672V848H471V0H217V848H41Z" />
<glyph unicode="g" glyph-name="g" horiz-adv-x="1200" d="M1032 700Q1032 582 968 495T798 363T559 319Q476 319 395 338Q365 303 365 262Q365 236 376 220T410 197T456 188T514 186H735Q913 186 1012 116T1112 -84Q1112 -201 1031 -286T814 -413T506 -455Q287
-455 159 -386T31 -190Q31 -113 82 -52T233 45Q139 107 139 207Q139 313 258 397Q102 500 102 686Q102 805 166 893T335 1025T573 1069Q792 1069 918 958Q995 1044 1114 1044Q1149 1044 1165 1042V827Q1153 829 1114 829Q1066 829 1014 815Q1032 762 1032 700ZM356
686Q356 583 416 533T571 483Q669 483 728 534T788 688Q788 792 730 841T575 891Q478 891 417 840T356 686ZM678 -12H406Q274 -64 274 -154Q274 -220 345 -253T539 -287Q682 -287 769 -244T856 -123Q856 -12 678 -12Z" />
<glyph unicode="h" glyph-name="h" horiz-adv-x="1173" d="M141 0V1475H395V905Q564 1069 772 1069Q1051 1069 1051 778V0H797V705Q797 782 765 815T668 848Q534 848 395 723V0H141Z" />
<glyph unicode="i" glyph-name="i" horiz-adv-x="561" d="M154 0V1044H408V0H154ZM281 1194Q212 1194 172 1233T131 1335Q131 1398 171 1437T281 1477Q349 1477 389 1438T430 1335Q430 1273 390 1234T281 1194Z" />
<glyph unicode="j" glyph-name="j" horiz-adv-x="561" d="M408 1044V-109Q408 -277 329 -359T76 -442Q21 -442 -47 -432V-238Q-8 -248 29 -248Q100 -248 127 -216T154 -109V1044H408ZM281 1194Q212 1194 172 1233T131 1335Q131 1398 171 1437T281 1477Q349 1477
389 1438T430 1335Q430 1273 390 1234T281 1194Z" />
<glyph unicode="k" glyph-name="k" horiz-adv-x="1118" d="M141 0V1475H395V621L760 1044H1044L678 664L1077 0H809L518 494L395 365V0H141Z" />
<glyph unicode="l" glyph-name="l" horiz-adv-x="561" d="M154 0V1475H408V0H154Z" />
<glyph unicode="m" glyph-name="m" horiz-adv-x="1787" d="M141 0V1044H395V905Q555 1069 758 1069Q801 1069 838 1061T911 1034T973 983T1014 903Q1184 1069 1395 1069Q1665 1069 1665 778V0H1411V705Q1411 784 1380 816T1288 848Q1162 848 1030 727V0H776V705Q776
783 745 815T653 848Q523 848 395 723V0H141Z" />
<glyph unicode="n" glyph-name="n" horiz-adv-x="1173" d="M141 0V1044H395V905Q564 1069 772 1069Q1051 1069 1051 778V0H797V705Q797 782 765 815T668 848Q534 848 395 723V0H141Z" />
<glyph unicode="o" glyph-name="o" horiz-adv-x="1142" d="M334 700T334 518T399 249T571 162T743 249T809 518T743 787T571 874T400 787ZM1063 526Q1063 389 1024 282T916 109T759 9T567 -25Q466 -25 379 8T225 106T119 276T80 518Q80 655 119 762T227 935T384
1035T575 1069Q676 1069 763 1036T918 938T1024 768T1063 526Z" />
<glyph unicode="p" glyph-name="p" horiz-adv-x="1187" d="M141 1044H395V907Q531 1069 715 1069Q893 1069 1000 929T1108 537Q1108 271 991 123T690 -25Q522 -25 395 123V-430H141V1044ZM631 852Q513 852 395 731V291Q502 178 623 178Q730 178 792 262T854 516T794
768T631 852Z" />
<glyph unicode="q" glyph-name="q" horiz-adv-x="1187" d="M1047 -430H793V137Q656 -25 473 -25Q295 -25 188 114T80 504Q80 770 198 919T498 1069Q675 1069 803 907V1044H1047V-430ZM557 178Q675 178 793 299V739Q686 852 565 852Q458 852 396 768T334 514Q334
346 394 262T557 178Z" />
<glyph unicode="r" glyph-name="r" horiz-adv-x="796" d="M762 1063V836Q728 840 696 840Q644 840 594 825T505 784T441 739T395 696V0H141V1044H395V883Q445 964 522 1016T698 1069Q736 1069 762 1063Z" />
<glyph unicode="s" glyph-name="s" horiz-adv-x="948" d="M836 979L782 776Q642 872 514 872Q445 872 406 842T367 762Q367 722 394 696T466 654T564 626T671 592T768 541T840 456T868 324Q868 162 754 69T444 -25Q244 -25 80 68L133 264Q308 166 442 166Q528
166 575 201T623 295Q623 338 596 367T524 413T426 444T319 479T221 529T149 612T121 739Q121 891 227 980T512 1069Q687 1069 836 979Z" />
<glyph unicode="t" glyph-name="t" horiz-adv-x="763" d="M41 848V1044H217V1393H471V1044H698V848H471V324Q471 246 493 217T575 188Q627 188 698 209V6Q603 -12 506 -12Q344 -12 281 51T217 285V848H41Z" />
<glyph unicode="u" glyph-name="u" horiz-adv-x="1173" d="M1032 1044V0H778V139Q611 -25 401 -25Q123 -25 123 266V1044H377V332Q377 254 409 221T506 188Q637 188 778 313V1044H1032Z" />
<glyph unicode="v" glyph-name="v" horiz-adv-x="1038" d="M383 0L18 1044H279L520 299L766 1044H1018L643 0H383Z" />
<glyph unicode="w" glyph-name="w" horiz-adv-x="1525" d="M961 0L829 469Q823 492 813 528T799 575T790 608T783 638T778 660T773 686T769 712T764 748H760Q750 662 696 475L559 0H315L25 1044H268L399 565Q431 449 457 295H461Q486 440 518 559L657 1044H879L1014
565Q1045 450 1071 295H1075Q1104 459 1133 561L1266 1044H1501L1202 0H961Z" />
<glyph unicode="x" glyph-name="x" horiz-adv-x="1052" d="M37 0L377 543L63 1044H330L530 700L729 1044H987L674 543L1014 0H748L520 385L295 0H37Z" />
<glyph unicode="y" glyph-name="y" horiz-adv-x="1038" d="M68 -434V-225Q130 -236 170 -236Q230 -236 270 -217T349 -141T428 25H354L20 1044H281L522 248L768 1044H1018L674 25Q626 -117 581 -205T478 -347T352 -421T188 -442Q111 -442 68 -434Z" />
<glyph unicode="z" glyph-name="z" horiz-adv-x="1005" d="M53 0V168L608 850H88V1044H926V883L371 201H932V0H53Z" />
<glyph unicode="{" glyph-name="braceleft" horiz-adv-x="804" d="M520 311V-33Q520 -110 553 -145T674 -180H741V-369H674Q460 -369 362 -287T264 -33V311Q264 389 231 424T111 459H63V647H111Q198 647 231 682T264 795V1139Q264 1311 362 1393T674 1475H741V1286H674Q587
1286 554 1251T520 1139V795Q520 705 482 646T362 553Q444 520 482 461T520 311Z" />
<glyph unicode="|" glyph-name="bar" horiz-adv-x="770" d="M260 -369V1475H510V-369H260Z" />
<glyph unicode="}" glyph-name="braceright" horiz-adv-x="804" d="M283 -33V311Q283 401 320 460T440 553Q358 586 321 645T283 795V1139Q283 1216 250 1251T129 1286H61V1475H129Q343 1475 441 1393T539 1139V795Q539 717 572 682T692 647H739V459H692Q605 459
572 424T539 311V-33Q539 -205 441 -287T129 -369H61V-180H129Q216 -180 249 -145T283 -33Z" />
<glyph unicode="~" glyph-name="asciitilde" horiz-adv-x="1171" d="M346 465Q222 465 123 383L51 571Q99 613 177 641T342 670Q429 670 592 625T825 580Q951 580 1049 662L1120 473Q1072 432 994 404T829 375T580 420T346 465Z" />
</font>
</defs>
</svg>
